<svg width="22" height="22" viewBox="0 0 22 22" fill="none" xmlns="http://www.w3.org/2000/svg">
    <circle cx="11" cy="11" r="10" style="fill:none;stroke:white;stroke-width:2px;"/>
    <g transform="matrix(1,0,0,1,11,11)">
        <g transform="matrix(1,0,0,1,-4,-4)">
            <path d="M7.354,4.354C7.549,4.158 7.549,3.842 7.354,3.646L4.172,0.464C3.976,0.269 3.66,0.269 3.464,0.464C3.269,0.66 3.269,0.976 3.464,1.172L6.293,4L3.464,6.828C3.269,7.024 3.269,7.34 3.464,7.536C3.66,7.731 3.976,7.731 4.172,7.536L7.354,4.354ZM0,4.5L7,4.5L7,3.5L0,3.5L0,4.5Z" style="fill:white;fill-rule:nonzero;"/>
        </g>
    </g>
</svg>
